<svg width="29" height="29" viewBox="0 0 29 29" fill="none" xmlns="http://www.w3.org/2000/svg">
<path d="M9.9893 17.7383C9.76696 17.7383 9.61713 17.76 9.53979 17.7818V19.2052C9.63163 19.2269 9.74642 19.233 9.90471 19.233C10.4835 19.233 10.84 18.9406 10.84 18.4464C10.84 18.0041 10.533 17.7383 9.9893 17.7383ZM14.2028 17.7528C13.9611 17.7528 13.804 17.7745 13.711 17.7963V20.95C13.804 20.9718 13.9538 20.9718 14.0892 20.9718C15.0764 20.979 15.7192 20.4353 15.7192 19.2849C15.7265 18.282 15.1404 17.7528 14.2028 17.7528Z" fill="black"/>
<path d="M16.9166 2.41663H7.24992C6.60898 2.41663 5.99429 2.67124 5.54108 3.12445C5.08786 3.57766 4.83325 4.19235 4.83325 4.83329V24.1666C4.83325 24.8076 5.08786 25.4223 5.54108 25.8755C5.99429 26.3287 6.60898 26.5833 7.24992 26.5833H21.7499C22.3909 26.5833 23.0055 26.3287 23.4588 25.8755C23.912 25.4223 24.1666 24.8076 24.1666 24.1666V9.66663L16.9166 2.41663ZM11.4767 19.5629C11.1033 19.9133 10.5523 20.0704 9.91067 20.0704C9.78624 20.0727 9.66181 20.0654 9.5385 20.0486V21.7717H8.45825V17.0157C8.94578 16.9432 9.43836 16.9101 9.93121 16.9166C10.6043 16.9166 11.0828 17.0447 11.4054 17.3021C11.7123 17.5462 11.9201 17.9461 11.9201 18.4174C11.9189 18.891 11.7618 19.291 11.4767 19.5629ZM16.0768 21.2002C15.5693 21.6219 14.7972 21.8225 13.8535 21.8225C13.288 21.8225 12.888 21.7862 12.6161 21.75V17.0169C13.1038 16.946 13.5963 16.9125 14.0891 16.9166C15.0038 16.9166 15.5983 17.081 16.0623 17.4314C16.5638 17.8035 16.8779 18.3968 16.8779 19.2487C16.8779 20.1707 16.5408 20.8075 16.0768 21.2002ZM20.5416 17.847H18.6904V18.9478H20.4208V19.8348H18.6904V21.7729H17.5957V16.9529H20.5416V17.847ZM16.9166 10.875H15.7083V4.83329L21.7499 10.875H16.9166Z" fill="black"/>
</svg>
